NOWHERE BOY 2009 DVDRIP XviD MOVIE and AFTER THE MOVIE THE EXTRAS INTERVIEWS AND DISCUSIONS

Format                           : AVI
Format/Info                      : Audio Video Interleave
File size                        : 768 MiB
Duration                         : 4h 57mn
Overall bit rate                 : 361 Kbps
Writing application              : MEncoder SVN-r29352(20090610-gcc4.3.3)
Writing library                  : MPlayer

Video
ID                               : 0
Format                           : MPEG-4 Visual
Format profile                   : AdvancedSimple@L5
Format settings, BVOP            : Yes
Format settings, QPel            : No
Format settings, GMC             : No warppoints
Format settings, Matrix          : Default (H.263)
Codec ID                         : XVID
Codec ID/Hint                    : XviD
Duration                         : 2h 28mn
Bit rate                         : 613 Kbps
Width                            : 640 pixels
Height                           : 360 pixels
Display aspect ratio             : 16:9
Frame rate                       : 25.000 fps
Resolution                       : 24 bits
Colorimetry                      : 4:2:0
Scan type                        : Progressive
Bits/(Pixel*Frame)               : 0.106
Stream size                      : 652 MiB (85%)
Writing library                  : XviD 1.2.1 (UTC 2008-12-04)

Audio
ID                               : 1
Format                           : MPEG Audio
Format version                   : Version 2
Format profile                   : Layer 3
Codec ID                         : 55
Codec ID/Hint                    : MP3
Duration                         : 4h 57mn
Bit rate mode                    : Constant
Bit rate                         : 96.0 Kbps
Channel(s)                       : 2 channels
Sampling rate                    : 22.05 KHz
Resolution                       : 16 bits
Video delay                      : 80ms
Stream size                      : 102 MiB (13%)
Alignment                        : Aligned on interleaves
Interleave, duration             : 26 ms (0.65 video frame)
Interleave, preload duration     : 522 ms
Writing library                  : LAME3.98

Nowhere Boy is a British feature film about John Lennon's adolescence and the gradual evolution of his first band into The Beatles. [3]

The drama tells the story of Lennon's teenage years and the start of his journey to becoming a successful musician. The story also examines the impact on his early life and personality of the two dominant females in his childhood - his Aunt Mimi and his mother Julia[4] In addition, the film shows the first meeting of Lennon with future Beatle Paul McCartney and the development of their friendship and musical partnership. British actor Aaron Johnson portrays Lennon and Thomas Sangster plays Paul McCartney.[1]Lennon's aunt Mimi is portrayed by Kristin Scott Thomas and Anne-Marie Duff plays Lennon's mother Julia
 
http://www.imdb.com/title/tt1266029/

PLEASE SEED AND ENJOY THANKS

NOTE-> This is the full movie and then the extras are after the movie in one file

screen shots
 
http://img688.imageshack.us/img688/4591/nowerboyextrasxvidvicea.jpg